# xmcd
#
# Track frame offsets:
#	150
#	13925
#	45025
#	60512
#	94064
#	126016
#	175910
#	191683
#	213619
#	227397
#	243581
#	265821
#
# Disc length: 3810 seconds
#
# Revision: 1
# Processed by: cddbd v1.5.2PL0 Copyright (c) Steve Scherf et al.
# Submitted via: audiograbber 1.83.01
#
DISCID=9b0ee00c
DTITLE=Grateful Dead - 72-11-17 Century II Convention Hall, Wichita KS
DYEAR=1900
DGENRE=
TTITLE0=Promised Land
TTITLE1=Sugaree
TTITLE2=Me and My Uncle
TTITLE3=Tennessee Jed
TTITLE4=Black Throated Wind
TTITLE5=Bird Song
TTITLE6=Jack Straw
TTITLE7=Box Of Rain
TTITLE8=Don't Ease Me In
TTITLE9=BIODTL
TTITLE10=Brown Eyed Women
TTITLE11=Big River
EXTD=
EXTT0=
EXTT1=
EXTT2=
EXTT3=
EXTT4=
EXTT5=
EXTT6=
EXTT7=
EXTT8=
EXTT9=
EXTT10=
EXTT11=
PLAYORDER=
